<?xml version="1.0" standalone="no"?>
<!DOCTYPE svg PUBLIC "-//W3C//DTD SVG 20010904//EN"
 "http://www.w3.org/TR/2001/REC-SVG-20010904/DTD/svg10.dtd">
<svg version="1.0" xmlns="http://www.w3.org/2000/svg"
 width="512.000000pt" height="512.000000pt" viewBox="0 0 512.000000 512.000000"
 preserveAspectRatio="xMidYMid meet">

<g transform="translate(0.000000,512.000000) scale(0.100000,-0.100000)"
fill="#000000" stroke="none">
<path d="M2505 5035 c-24 -24 -25 -28 -25 -183 0 -145 2 -160 20 -180 27 -28
62 -37 92 -21 44 24 47 36 48 202 0 155 -1 158 -25 182 -15 16 -36 25 -55 25
-19 0 -40 -9 -55 -25z"/>
<path d="M1834 4667 c-20 -17 -27 -33 -27 -57 0 -36 29 -68 211 -227 68 -60
88 -73 116 -73 58 0 98 76 63 120 -13 17 -202 189 -255 233 -41 33 -72 34
-108 4z"/>
<path d="M3194 4677 c-12 -7 -83 -67 -158 -135 -121 -110 -136 -126 -136 -155
0 -59 49 -98 99 -79 25 9 289 239 302 263 16 31 10 69 -16 94 -26 27 -58 31
-91 12z"/>
<path d="M2530 4428 c-5 -13 -41 -104 -78 -203 l-69 -180 -104 -7 c-57 -4
-157 -10 -221 -13 -90 -5 -118 -10 -122 -22 -3 -8 -3 -19 0 -24 3 -6 76 -66
162 -136 87 -69 160 -131 164 -138 4 -7 -17 -103 -48 -215 -30 -111 -53 -209
-50 -216 3 -8 13 -14 22 -14 10 0 93 50 186 111 93 60 175 112 182 115 7 3 91
-47 187 -110 96 -64 182 -116 192 -116 10 0 20 6 23 14 3 7 -20 104 -50 215
-30 111 -53 207 -50 214 3 7 73 66 155 132 172 138 182 147 174 168 -5 12 -31
17 -123 22 -64 3 -164 9 -221 13 l-104 7 -76 200 c-65 170 -80 200 -99 203
-15 2 -25 -4 -32 -20z"/>
<path d="M1977 2819 c-49 -28 -47 13 -47 -1209 l0 -1140 630 0 630 0 0 1140
c0 1228 2 1182 -49 1210 -27 14 -1139 13 -1164 -1z"/>
<path d="M728 2154 c-15 -8 -32 -23 -38 -34 -7 -12 -10 -296 -10 -834 l0 -816
545 0 545 0 0 850 0 850 -507 0 c-429 -1 -512 -3 -535 -16z"/>
<path d="M3350 1035 l0 -565 545 0 545 0 0 531 c0 344 -4 537 -10 550 -26 48
-34 49 -575 49 l-505 0 0 -565z"/>
<path d="M144 296 c-45 -20 -64 -52 -64 -109 0 -53 20 -101 49 -117 27 -14
4835 -14 4862 0 46 25 66 141 33 189 -38 54 106 51 -2466 51 -1985 -1 -2388
-3 -2414 -14z"/>
</g>
</svg>
