<?xml version="1.0" standalone="no"?>
<!DOCTYPE svg PUBLIC "-//W3C//DTD SVG 20010904//EN"
 "http://www.w3.org/TR/2001/REC-SVG-20010904/DTD/svg10.dtd">
<svg version="1.0" xmlns="http://www.w3.org/2000/svg"
 width="512.000000pt" height="512.000000pt" viewBox="0 0 512.000000 512.000000"
 preserveAspectRatio="xMidYMid meet">

<g transform="translate(0.000000,512.000000) scale(0.100000,-0.100000)"
fill="#000000" stroke="none">
<path d="M2505 5095 c-24 -24 -25 -27 -25 -185 0 -158 1 -161 25 -185 15 -16
36 -25 55 -25 19 0 40 9 55 25 24 24 25 27 25 185 0 158 -1 161 -25 185 -15
16 -36 25 -55 25 -19 0 -40 -9 -55 -25z"/>
<path d="M1823 4740 c-27 -11 -43 -40 -43 -77 0 -32 33 -67 223 -236 112 -100
139 -113 187 -87 22 12 40 61 33 89 -3 11 -66 75 -141 143 -208 189 -208 189
-259 168z"/>
<path d="M3209 4723 c-91 -73 -308 -276 -312 -294 -7 -28 11 -77 33 -89 48
-26 75 -13 187 87 195 174 223 204 223 239 0 40 -26 72 -65 80 -24 4 -38 -1
-66 -23z"/>
<path d="M2512 4545 c-38 -16 -50 -40 -132 -262 l-53 -141 -126 -6 c-256 -13
-280 -16 -311 -43 -38 -31 -47 -80 -25 -125 10 -21 69 -75 161 -148 80 -63
148 -118 150 -122 2 -3 -18 -89 -46 -190 -27 -100 -50 -191 -50 -201 0 -58 67
-113 125 -104 17 3 104 53 193 111 l163 107 161 -107 c89 -58 176 -108 193
-111 58 -9 125 46 125 104 0 10 -23 101 -50 202 -41 149 -48 187 -38 196 7 7
74 61 148 121 74 59 140 115 147 124 35 44 20 122 -30 155 -21 13 -256 35
-388 35 l-36 0 -53 143 c-84 226 -94 246 -134 262 -43 18 -52 18 -94 0z m93
-357 c73 -196 84 -207 217 -209 40 -1 101 -4 136 -8 l62 -6 -82 -65 c-126 -99
-156 -128 -163 -160 -4 -19 6 -75 31 -165 20 -75 35 -138 33 -140 -2 -2 -56
31 -119 73 -156 104 -165 104 -319 0 -63 -43 -117 -75 -119 -73 -3 2 12 65 32
140 25 90 35 146 31 165 -7 32 -37 61 -163 160 l-82 65 67 6 c38 4 99 7 136 8
127 2 139 14 212 209 21 56 41 102 45 102 4 0 24 -46 45 -102z"/>
<path d="M1904 2930 c-52 -21 -54 -31 -54 -357 l0 -303 -603 0 -604 0 -21 -23
-22 -23 0 -907 0 -907 -266 0 c-270 0 -293 -3 -321 -39 -9 -11 -12 -65 -13
-169 0 -149 1 -154 25 -177 l24 -25 2511 0 2511 0 24 25 c24 23 25 28 25 177
-1 104 -4 158 -13 169 -28 36 -51 39 -321 39 l-266 0 0 624 0 625 -26 20 c-26
21 -35 21 -625 21 l-599 0 -2 595 -3 594 -23 23 -23 23 -647 2 c-356 1 -657
-2 -668 -7z m1204 -1337 l2 -1183 -550 0 -550 0 0 1178 c0 648 3 1182 7 1185
3 4 250 6 547 5 l541 -3 3 -1182z m-1258 -333 l0 -850 -545 0 -545 0 0 850 0
850 545 0 545 0 0 -850z m2510 -285 l0 -565 -545 0 -545 0 0 565 0 565 545 0
545 0 0 -565z m600 -770 l0 -45 -2400 0 -2400 0 0 45 0 45 2400 0 2400 0 0
-45z"/>
</g>
</svg>
